<?xml version="1.0" standalone="no"?>
<!DOCTYPE svg PUBLIC "-//W3C//DTD SVG 1.1//EN"
  "http://www.w3.org/Graphics/SVG/1.1/DTD/svg11.dtd">
<svg baseProfile="full" height="100%" version="1.1" width="100%" xmlns="http://www.w3.org/2000/svg" xmlns:ev="http://www.w3.org/2001/xml-events" xmlns:xlink="http://www.w3.org/1999/xlink"><defs><marker fill="black" id="id1" markerHeight="10" markerUnits="strokeWidth" markerWidth="8" orient="auto" overflow="visible" refX="0" refY="5" stroke="none" viewBox="0 0 10 5"><path d="M 0 0 L 10 5 L 0 10 z" /></marker><marker fill="black" id="id2" markerHeight="10" markerUnits="strokeWidth" markerWidth="8" orient="auto" overflow="visible" refX="0" refY="5" stroke="none" viewBox="0 0 10 5"><path d="M 0 0 L 10 5 L 0 10 z" /></marker><marker fill="black" id="id3" markerHeight="10" markerUnits="strokeWidth" markerWidth="8" orient="auto" overflow="visible" refX="0" refY="5" stroke="none" viewBox="0 0 10 5"><path d="M 0 0 L 10 5 L 0 10 z" /></marker><marker fill="black" id="id4" markerHeight="10" markerUnits="strokeWidth" markerWidth="8" orient="auto" overflow="visible" refX="0" refY="5" stroke="none" viewBox="0 0 10 5"><path d="M 0 0 L 10 5 L 0 10 z" /></marker><marker fill="black" id="id5" markerHeight="10" markerUnits="strokeWidth" markerWidth="8" orient="auto" overflow="visible" refX="0" refY="5" stroke="none" viewBox="0 0 10 5"><path d="M 0 0 L 10 5 L 0 10 z" /></marker><marker fill="black" id="id6" markerHeight="10" markerUnits="strokeWidth" markerWidth="8" orient="auto" overflow="visible" refX="0" refY="5" stroke="none" viewBox="0 0 10 5"><path d="M 0 0 L 10 5 L 0 10 z" /></marker></defs><rect fill="#EBD9B2" height="30" stroke="#000000" width="107.25" x="5" y="10" /><rect fill="#ffffff" height="20" stroke="rgb(0,0,0)" width="107.25" x="5" y="40" /><rect fill="#EBD9B2" height="30" stroke="#000000" width="107.25" x="5" y="130" /><rect fill="#ffffff" height="20" stroke="rgb(0,0,0)" width="107.25" x="5" y="160" /><rect fill="#EBD9B2" height="30" stroke="#000000" width="107.25" x="5" y="250" /><rect fill="#ffffff" height="20" stroke="rgb(0,0,0)" width="107.25" x="5" y="280" /><rect fill="#EBD9B2" height="30" stroke="#000000" width="107.25" x="5" y="370" /><rect fill="#ffffff" height="20" stroke="rgb(0,0,0)" width="107.25" x="5" y="400" /><rect fill="#EBD9B2" height="30" stroke="#000000" width="214.5" x="225" y="10" /><rect fill="#ffffff" height="110" stroke="rgb(0,0,0)" width="214.5" x="225" y="40" /><rect fill="#EBD9B2" height="30" stroke="#000000" width="214.5" x="225" y="130" /><rect fill="#ffffff" height="110" stroke="rgb(0,0,0)" width="214.5" x="225" y="160" /><rect fill="#EBD9B2" height="30" stroke="#000000" width="203.5" x="225" y="250" /><rect fill="#ffffff" height="95" stroke="rgb(0,0,0)" width="203.5" x="225" y="280" /><rect fill="#EBD9B2" height="30" stroke="#000000" width="187.0" x="445" y="10" /><rect fill="#ffffff" height="185" stroke="rgb(0,0,0)" width="187.0" x="445" y="40" /><line marker-end="url(#id1)" stroke="#000000" x1="117.25" x2="220" y1="50" y2="55" /><line marker-end="url(#id2)" stroke="#000000" x1="117.25" x2="220" y1="410" y2="175" /><line marker-end="url(#id3)" stroke="#000000" x1="117.25" x2="220" y1="50" y2="295" /><line marker-end="url(#id4)" stroke="#000000" x1="117.25" x2="220" y1="410" y2="310" /><line marker-end="url(#id5)" stroke="#000000" x1="433.5" x2="440" y1="335" y2="55" /><line marker-end="url(#id6)" stroke="#000000" x1="433.5" x2="440" y1="350" y2="70" /><g style="font-family: Helvetica, Arial, FreeSans, Sans, sans, sans-serif;"><text style="font-size:14px" x="10" y="30">Input dataset</text><text style="font-size:10px" x="10" y="55">output</text><text style="font-size:14px" x="10" y="150">Input dataset</text><text style="font-size:10px" x="10" y="175">output</text><text style="font-size:14px" x="10" y="270">Input dataset</text><text style="font-size:10px" x="10" y="295">output</text><text style="font-size:14px" x="10" y="390">Input dataset</text><text style="font-size:10px" x="10" y="415">output</text><text style="font-size:14px" x="230" y="30">FastQC</text><text style="font-size:10px" x="230" y="55">Raw read data from your current history</text><text style="font-size:10px" x="230" y="70">Contaminant list</text><text style="font-size:10px" x="230" y="85">Adapter list</text><text style="font-size:10px" x="230" y="100">Submodule and Limit specifing file</text><text style="font-size:10px" x="230" y="130">html_file</text><text style="font-size:10px" x="230" y="145">text_file</text><text style="font-size:14px" x="230" y="150">FastQC</text><text style="font-size:10px" x="230" y="175">Raw read data from your current history</text><text style="font-size:10px" x="230" y="190">Contaminant list</text><text style="font-size:10px" x="230" y="205">Adapter list</text><text style="font-size:10px" x="230" y="220">Submodule and Limit specifing file</text><text style="font-size:10px" x="230" y="250">html_file</text><text style="font-size:10px" x="230" y="265">text_file</text><text style="font-size:14px" x="230" y="270">Sickle</text><text style="font-size:10px" x="230" y="295">Paired-end forward strand FASTQ reads</text><text style="font-size:10px" x="230" y="310">Paired-end reverse strand FASTQ reads</text><text style="font-size:10px" x="230" y="340">output_paired1</text><text style="font-size:10px" x="230" y="355">output_paired2</text><text style="font-size:10px" x="230" y="370">output_paired_single</text><text style="font-size:14px" x="450" y="30">SPAdes</text><text style="font-size:10px" x="450" y="55">FASTA/FASTQ file(s): forward reads</text><text style="font-size:10px" x="450" y="70">FASTA/FASTQ file(s): reverse reads</text><text style="font-size:10px" x="450" y="85">Nanopore reads</text><text style="font-size:10px" x="450" y="100">PacBio CLR reads</text><text style="font-size:10px" x="450" y="115">Sanger reads</text><text style="font-size:10px" x="450" y="130">Trusted contigs</text><text style="font-size:10px" x="450" y="145">Untrusted contigs</text><text style="font-size:10px" x="450" y="175">out_ag</text><text style="font-size:10px" x="450" y="190">out_ags</text><text style="font-size:10px" x="450" y="205">out_cn</text><text style="font-size:10px" x="450" y="220">out_sc</text><line stroke="rgb(0,0,0)" x1="225" x2="439.5" y1="110" y2="110" /><circle cx="112.25" cy="50" fill="#ffffff" r="5" stroke="#000000" /><line stroke="rgb(0,0,0)" x1="225" x2="439.5" y1="230" y2="230" /><circle cx="112.25" cy="410" fill="#ffffff" r="5" stroke="#000000" /><line stroke="rgb(0,0,0)" x1="225" x2="428.5" y1="320" y2="320" /><circle cx="112.25" cy="50" fill="#ffffff" r="5" stroke="#000000" /><circle cx="112.25" cy="410" fill="#ffffff" r="5" stroke="#000000" /><line stroke="rgb(0,0,0)" x1="445" x2="632.0" y1="155" y2="155" /><circle cx="428.5" cy="335" fill="#ffffff" r="5" stroke="#000000" /><circle cx="428.5" cy="350" fill="#ffffff" r="5" stroke="#000000" /></g></svg>